{
  "accessors": [
    {
      "bufferView": 2,
      "componentType": 5126,
      "count": 482,
      "max": [
        0.70696002244949341,
        0.40000000596046448,
        3
      ],
      "min": [
        -0.31007999181747437,
        -0.40000000596046448,
        0.00042999998549930751
      ],
      "type": "VEC3"
    },
    {
      "bufferView": 2,
      "byteOffset": 5784,
      "componentType": 5126,
      "count": 482,
      "max": [
        0.9967835545539856,
        0.99999839067459106,
        0.99994558095932007
      ],
      "min": [
        -0.99972385168075562,
        -0.99999839067459106,
        -0.99990361928939819
      ],
      "type": "VEC3"
    },
    {
      "bufferView": 3,
      "componentType": 5126,
      "count": 482,
      "max": [
        0.78017240762710571,
        1,
        0.054175872355699539,
        1
      ],
      "min": [
        -0.99999946355819702,
        -0.76512426137924194,
        -0.063067637383937836,
        -1
      ],
      "type": "VEC4"
    },
    {
      "bufferView": 1,
      "componentType": 5126,
      "count": 482,
      "max": [
        1,
        1
      ],
      "min": [
        0,
        0
      ],
      "type": "VEC2"
    },
    {
      "bufferView": 0,
      "componentType": 5125,
      "count": 2880,
      "max": [
        481
      ],
      "min": [
        0
      ],
      "type": "SCALAR"
    },
    {
      "bufferView": 2,
      "byteOffset": 11568,
      "componentType": 5126,
      "count": 482,
      "max": [
        0.70696002244949341,
        0.40000000596046448,
        3
      ],
      "min": [
        -0.31007999181747437,
        -0.40000000596046448,
        0.00042999998549930751
      ],
      "type": "VEC3"
    },
    {
      "bufferView": 2,
      "byteOffset": 17352,
      "componentType": 5126,
      "count": 482,
      "max": [
        0.9967835545539856,
        0.99999839067459106,
        0.99994558095932007
      ],
      "min": [
        -0.99972385168075562,
        -0.99999839067459106,
        -0.99990361928939819
      ],
      "type": "VEC3"
    },
    {
      "bufferView": 3,
      "byteOffset": 7712,
      "componentType": 5126,
      "count": 482,
      "max": [
        0.70414537191390991,
        0.76990973949432373,
        0.1918935626745224,
        1
      ],
      "min": [
        -0.9999995231628418,
        -1,
        -0.061165615916252136,
        -1
      ],
      "type": "VEC4"
    },
    {
      "bufferView": 1,
      "byteOffset": 3856,
      "componentType": 5126,
      "count": 482,
      "max": [
        1,
        1
      ],
      "min": [
        0,
        0
      ],
      "type": "VEC2"
    },
    {
      "bufferView": 0,
      "byteOffset": 11520,
      "componentType": 5125,
      "count": 2880,
      "max": [
        481
      ],
      "min": [
        0
      ],
      "type": "SCALAR"
    },
    {
      "bufferView": 2,
      "byteOffset": 23136,
      "componentType": 5126,
      "count": 482,
      "max": [
        0.70696002244949341,
        0.40000000596046448,
        3
      ],
      "min": [
        -0.31007999181747437,
        -0.40000000596046448,
        0.00042999998549930751
      ],
      "type": "VEC3"
    },
    {
      "bufferView": 2,
      "byteOffset": 28920,
      "componentType": 5126,
      "count": 482,
      "max": [
        0.9967835545539856,
        0.99999839067459106,
        0.99994558095932007
      ],
      "min": [
        -0.99972385168075562,
        -0.99999839067459106,
        -0.99990361928939819
      ],
      "type": "VEC3"
    },
    {
      "bufferView": 3,
      "byteOffset": 15424,
      "componentType": 5126,
      "count": 482,
      "max": [
        0.99999946355819702,
        0.76512438058853149,
        0.063054487109184265,
        1
      ],
      "min": [
        -0.78017246723175049,
        -0.99999994039535522,
        -0.054175402969121933,
        -1
      ],
      "type": "VEC4"
    },
    {
      "bufferView": 1,
      "byteOffset": 7712,
      "componentType": 5126,
      "count": 482,
      "max": [
        1,
        1
      ],
      "min": [
        0,
        0
      ],
      "type": "VEC2"
    },
    {
      "bufferView": 0,
      "byteOffset": 23040,
      "componentType": 5125,
      "count": 2880,
      "max": [
        481
      ],
      "min": [
        0
      ],
      "type": "SCALAR"
    },
    {
      "bufferView": 2,
      "byteOffset": 34704,
      "componentType": 5126,
      "count": 482,
      "max": [
        0.70696002244949341,
        0.40000000596046448,
        3
      ],
      "min": [
        -0.31007999181747437,
        -0.40000000596046448,
        0.00042999998549930751
      ],
      "type": "VEC3"
    },
    {
      "bufferView": 2,
      "byteOffset": 40488,
      "componentType": 5126,
      "count": 482,
      "max": [
        0.9967835545539856,
        0.99999839067459106,
        0.99994558095932007
      ],
      "min": [
        -0.99972385168075562,
        -0.99999839067459106,
        -0.99990361928939819
      ],
      "type": "VEC3"
    },
    {
      "bufferView": 3,
      "byteOffset": 23136,
      "componentType": 5126,
      "count": 482,
      "max": [
        0.9999995231628418,
        1,
        0.061165962368249893,
        1
      ],
      "min": [
        -0.70413744449615479,
        -0.76990973949432373,
        -0.19188717007637024,
        -1
      ],
      "type": "VEC4"
    },
    {
      "bufferView": 1,
      "byteOffset": 11568,
      "componentType": 5126,
      "count": 482,
      "max": [
        1,
        1
      ],
      "min": [
        0,
        0
      ],
      "type": "VEC2"
    },
    {
      "bufferView": 0,
      "byteOffset": 34560,
      "componentType": 5125,
      "count": 2880,
      "max": [
        481
      ],
      "min": [
        0
      ],
      "type": "SCALAR"
    },
    {
      "bufferView": 4,
      "componentType": 5126,
      "count": 2,
      "max": [
        20.833330154418945
      ],
      "min": [
        0.041669998317956924
      ],
      "type": "SCALAR"
    },
    {
      "bufferView": 5,
      "componentType": 5126,
      "count": 2,
      "max": [
        0,
        0,
        0
      ],
      "min": [
        0,
        0,
        0
      ],
      "type": "VEC3"
    },
    {
      "bufferView": 4,
      "byteOffset": 8,
      "componentType": 5126,
      "count": 496,
      "max": [
        20.833330154418945
      ],
      "min": [
        0.041669998317956924
      ],
      "type": "SCALAR"
    },
    {
      "bufferView": 6,
      "componentType": 5126,
      "count": 496,
      "max": [
        0.083420000970363617,
        0,
        0.86185997724533081,
        0.74066001176834106
      ],
      "min": [
        -0.037629999220371246,
        -0.084610000252723694,
        0.67050999402999878,
        0.49781998991966248
      ],
      "type": "VEC4"
    },
    {
      "bufferView": 4,
      "byteOffset": 1992,
      "componentType": 5126,
      "count": 500,
      "max": [
        20.833330154418945
      ],
      "min": [
        0.041669998317956924
      ],
      "type": "SCALAR"
    },
    {
      "bufferView": 5,
      "byteOffset": 24,
      "componentType": 5126,
      "count": 500,
      "max": [
        1.1533600091934204,
        1.0457899570465088,
        1.1943099498748779
      ],
      "min": [
        1,
        0.89950001239776611,
        1.0234800577163696
      ],
      "type": "VEC3"
    },
    {
      "bufferView": 4,
      "byteOffset": 3992,
      "componentType": 5126,
      "count": 2,
      "max": [
        20.833330154418945
      ],
      "min": [
        0.041669998317956924
      ],
      "type": "SCALAR"
    },
    {
      "bufferView": 5,
      "byteOffset": 6024,
      "componentType": 5126,
      "count": 2,
      "max": [
        0,
        0,
        0
      ],
      "min": [
        0,
        0,
        0
      ],
      "type": "VEC3"
    },
    {
      "bufferView": 4,
      "byteOffset": 4000,
      "componentType": 5126,
      "count": 499,
      "max": [
        20.833330154418945
      ],
      "min": [
        0.041669998317956924
      ],
      "type": "SCALAR"
    },
    {
      "bufferView": 6,
      "byteOffset": 7936,
      "componentType": 5126,
      "count": 499,
      "max": [
        0.047970000654459,
        0.14145000278949738,
        1,
        0.099519997835159302
      ],
      "min": [
        -0.059829998761415482,
        -0.1658799946308136,
        -0.99992001056671143,
        -0.0098299998790025711
      ],
      "type": "VEC4"
    },
    {
      "bufferView": 4,
      "byteOffset": 5996,
      "componentType": 5126,
      "count": 500,
      "max": [
        20.833330154418945
      ],
      "min": [
        0.041669998317956924
      ],
      "type": "SCALAR"
    },
    {
      "bufferView": 5,
      "byteOffset": 6048,
      "componentType": 5126,
      "count": 500,
      "max": [
        1.1356199979782104,
        1.0736900568008423,
        1.2403099536895752
      ],
      "min": [
        0.9550899863243103,
        0.95503997802734375,
        1.0515899658203125
      ],
      "type": "VEC3"
    },
    {
      "bufferView": 4,
      "byteOffset": 7996,
      "componentType": 5126,
      "count": 2,
      "max": [
        20.833330154418945
      ],
      "min": [
        0.041669998317956924
      ],
      "type": "SCALAR"
    },
    {
      "bufferView": 5,
      "byteOffset": 12048,
      "componentType": 5126,
      "count": 2,
      "max": [
        0,
        0,
        0
      ],
      "min": [
        0,
        0,
        0
      ],
      "type": "VEC3"
    },
    {
      "bufferView": 4,
      "byteOffset": 8004,
      "componentType": 5126,
      "count": 499,
      "max": [
        20.833330154418945
      ],
      "min": [
        0.041669998317956924
      ],
      "type": "SCALAR"
    },
    {
      "bufferView": 6,
      "byteOffset": 15920,
      "componentType": 5126,
      "count": 499,
      "max": [
        0.11846999824047089,
        0.035069998353719711,
        -0.63595002889633179,
        0.76754999160766602
      ],
      "min": [
        0,
        -0.059920001775026321,
        -0.81152999401092529,
        0.57362997531890869
      ],
      "type": "VEC4"
    },
    {
      "bufferView": 4,
      "byteOffset": 10000,
      "componentType": 5126,
      "count": 500,
      "max": [
        20.833330154418945
      ],
      "min": [
        0.041669998317956924
      ],
      "type": "SCALAR"
    },
    {
      "bufferView": 5,
      "byteOffset": 12072,
      "componentType": 5126,
      "count": 500,
      "max": [
        1.0345100164413452,
        1.1464999914169312,
        1.1761200428009033
      ],
      "min": [
        0.94195002317428589,
        0.92818999290466309,
        0.9302399754524231
      ],
      "type": "VEC3"
    },
    {
      "bufferView": 4,
      "byteOffset": 12000,
      "componentType": 5126,
      "count": 2,
      "max": [
        20.833330154418945
      ],
      "min": [
        0.041669998317956924
      ],
      "type": "SCALAR"
    },
    {
      "bufferView": 5,
      "byteOffset": 18072,
      "componentType": 5126,
      "count": 2,
      "max": [
        0,
        0,
        0
      ],
      "min": [
        0,
        0,
        0
      ],
      "type": "VEC3"
    },
    {
      "bufferView": 4,
      "byteOffset": 12008,
      "componentType": 5126,
      "count": 500,
      "max": [
        20.833330154418945
      ],
      "min": [
        0.041669998317956924
      ],
      "type": "SCALAR"
    },
    {
      "bufferView": 6,
      "byteOffset": 23904,
      "componentType": 5126,
      "count": 500,
      "max": [
        0.0046399999409914017,
        0.063720002770423889,
        0.27685999870300293,
        1
      ],
      "min": [
        -0.057750001549720764,
        -0.056290000677108765,
        -0.12456999719142914,
        0.96062999963760376
      ],
      "type": "VEC4"
    },
    {
      "bufferView": 4,
      "byteOffset": 14008,
      "componentType": 5126,
      "count": 500,
      "max": [
        20.833330154418945
      ],
      "min": [
        0.041669998317956924
      ],
      "type": "SCALAR"
    },
    {
      "bufferView": 5,
      "byteOffset": 18096,
      "componentType": 5126,
      "count": 500,
      "max": [
        1.0548900365829468,
        1.0199300050735474,
        1.1214599609375
      ],
      "min": [
        0.94823002815246582,
        0.93458998203277588,
        0.88609999418258667
      ],
      "type": "VEC3"
    }
  ],
  "animations": [
    {
      "channels": [
        {
          "sampler": 0,
          "target": {
            "node": 11,
            "path": "translation"
          }
        },
        {
          "sampler": 1,
          "target": {
            "node": 11,
            "path": "rotation"
          }
        },
        {
          "sampler": 2,
          "target": {
            "node": 11,
            "path": "scale"
          }
        },
        {
          "sampler": 3,
          "target": {
            "node": 9,
            "path": "translation"
          }
        },
        {
          "sampler": 4,
          "target": {
            "node": 9,
            "path": "rotation"
          }
        },
        {
          "sampler": 5,
          "target": {
            "node": 9,
            "path": "scale"
          }
        },
        {
          "sampler": 6,
          "target": {
            "node": 7,
            "path": "translation"
          }
        },
        {
          "sampler": 7,
          "target": {
            "node": 7,
            "path": "rotation"
          }
        },
        {
          "sampler": 8,
          "target": {
            "node": 7,
            "path": "scale"
          }
        },
        {
          "sampler": 9,
          "target": {
            "node": 5,
            "path": "translation"
          }
        },
        {
          "sampler": 10,
          "target": {
            "node": 5,
            "path": "rotation"
          }
        },
        {
          "sampler": 11,
          "target": {
            "node": 5,
            "path": "scale"
          }
        }
      ],
      "name": "Take 01",
      "samplers": [
        {
          "input": 20,
          "interpolation": "LINEAR",
          "output": 21
        },
        {
          "input": 22,
          "interpolation": "LINEAR",
          "output": 23
        },
        {
          "input": 24,
          "interpolation": "LINEAR",
          "output": 25
        },
        {
          "input": 26,
          "interpolation": "LINEAR",
          "output": 27
        },
        {
          "input": 28,
          "interpolation": "LINEAR",
          "output": 29
        },
        {
          "input": 30,
          "interpolation": "LINEAR",
          "output": 31
        },
        {
          "input": 32,
          "interpolation": "LINEAR",
          "output": 33
        },
        {
          "input": 34,
          "interpolation": "LINEAR",
          "output": 35
        },
        {
          "input": 36,
          "interpolation": "LINEAR",
          "output": 37
        },
        {
          "input": 38,
          "interpolation": "LINEAR",
          "output": 39
        },
        {
          "input": 40,
          "interpolation": "LINEAR",
          "output": 41
        },
        {
          "input": 42,
          "interpolation": "LINEAR",
          "output": 43
        }
      ]
    }
  ],
  "asset": {
    "extras": {
      "author": "ayvlasov (https://sketchfab.com/ayvlasov)",
      "license": "CC-BY-4.0 (http://creativecommons.org/licenses/by/4.0/)",
      "source": "https://sketchfab.com/models/aa97f24da2a041dcb086b63696f33117",
      "title": "Flame Animation"
    },
    "generator": "Sketchfab-3.19.6",
    "version": "2.0"
  },
  "bufferViews": [
    {
      "buffer": 0,
      "byteLength": 46080,
      "byteOffset": 0,
      "name": "floatBufferViews",
      "target": 34963
    },
    {
      "buffer": 0,
      "byteLength": 15424,
      "byteOffset": 46080,
      "byteStride": 8,
      "name": "floatBufferViews",
      "target": 34962
    },
    {
      "buffer": 0,
      "byteLength": 46272,
      "byteOffset": 61504,
      "byteStride": 12,
      "name": "floatBufferViews",
      "target": 34962
    },
    {
      "buffer": 0,
      "byteLength": 30848,
      "byteOffset": 107776,
      "byteStride": 16,
      "name": "floatBufferViews",
      "target": 34962
    },
    {
      "buffer": 0,
      "byteLength": 16008,
      "byteOffset": 138624,
      "name": "floatBufferViews"
    },
    {
      "buffer": 0,
      "byteLength": 24096,
      "byteOffset": 154632,
      "byteStride": 12,
      "name": "floatBufferViews"
    },
    {
      "buffer": 0,
      "byteLength": 31904,
      "byteOffset": 178728,
      "byteStride": 16,
      "name": "floatBufferViews"
    }
  ],
  "buffers": [
    {
      "byteLength": 210632,
      "uri": "scene.bin"
    }
  ],
  "images": [
    {
      "uri": "textures/MaterialFire_baseColor.png"
    },
    {
      "uri": "textures/MaterialFire_metallicRoughness.png"
    },
    {
      "uri": "textures/MaterialFire_emissive.png"
    }
  ],
  "materials": [
    {
      "alphaMode": "BLEND",
      "doubleSided": false,
      "emissiveFactor": [
        1,
        1,
        1
      ],
      "emissiveTexture": {
        "index": 2,
        "texCoord": 0
      },
      "name": "MaterialFire",
      "pbrMetallicRoughness": {
        "baseColorFactor": [
          1,
          1,
          1,
          0.35999999999999999
        ],
        "baseColorTexture": {
          "index": 0,
          "texCoord": 0
        },
        "metallicFactor": 0.44,
        "metallicRoughnessTexture": {
          "index": 1,
          "texCoord": 0
        },
        "roughnessFactor": 0.48999999999999999
      }
    }
  ],
  "meshes": [
    {
      "name": "Flame1_0",
      "primitives": [
        {
          "attributes": {
            "NORMAL": 1,
            "POSITION": 0,
            "TANGENT": 2,
            "TEXCOORD_0": 3
          },
          "indices": 4,
          "material": 0,
          "mode": 4
        }
      ]
    },
    {
      "name": "Flame0_0",
      "primitives": [
        {
          "attributes": {
            "NORMAL": 6,
            "POSITION": 5,
            "TANGENT": 7,
            "TEXCOORD_0": 8
          },
          "indices": 9,
          "material": 0,
          "mode": 4
        }
      ]
    },
    {
      "name": "Flame2_0",
      "primitives": [
        {
          "attributes": {
            "NORMAL": 11,
            "POSITION": 10,
            "TANGENT": 12,
            "TEXCOORD_0": 13
          },
          "indices": 14,
          "material": 0,
          "mode": 4
        }
      ]
    },
    {
      "name": "Flame3_0",
      "primitives": [
        {
          "attributes": {
            "NORMAL": 16,
            "POSITION": 15,
            "TANGENT": 17,
            "TEXCOORD_0": 18
          },
          "indices": 19,
          "material": 0,
          "mode": 4
        }
      ]
    }
  ],
  "nodes": [
    {
      "children": [
        1
      ],
      "name": "RootNode (gltf orientation matrix)",
      "rotation": [
        -0.70710678118654746,
        -0,
        -0,
        0.70710678118654757
      ]
    },
    {
      "children": [
        2
      ],
      "name": "RootNode (model correction matrix)"
    },
    {
      "children": [
        3,
        5,
        7,
        9,
        11
      ],
      "name": "Root"
    },
    {
      "children": [
        4
      ],
      "matrix": [
        -0.29086000000000006,
        0.95517000000000007,
        -0.05519000000000001,
        0,
        -0.77110000000000001,
        -0.19988000000000003,
        0.60452000000000006,
        0,
        0.56639000000000006,
        0.21839000000000003,
        0.7946700000000001,
        0,
        4.0762500000000008,
        1.00545,
        5.9038600000000008,
        1
      ],
      "name": "Lamp"
    },
    {
      "name": "Lamp"
    },
    {
      "children": [
        6
      ],
      "name": "Flame1",
      "scale": [
        1,
        1,
        1.0981500148773193
      ]
    },
    {
      "mesh": 0,
      "name": "Flame1_0"
    },
    {
      "children": [
        8
      ],
      "name": "Flame0",
      "rotation": [
        0,
        0,
        -0.70710676908493042,
        0.70710676908493042
      ],
      "scale": [
        1,
        1,
        1.0357600450515747
      ]
    },
    {
      "mesh": 1,
      "name": "Flame0_0"
    },
    {
      "children": [
        10
      ],
      "name": "Flame2",
      "rotation": [
        0,
        0,
        1,
        0
      ],
      "scale": [
        1,
        1,
        1.0625300407409668
      ]
    },
    {
      "mesh": 2,
      "name": "Flame2_0"
    },
    {
      "children": [
        12
      ],
      "name": "Flame3",
      "rotation": [
        0,
        0,
        0.70710676908493042,
        0.70710676908493042
      ],
      "scale": [
        1,
        1,
        1.0461900234222412
      ]
    },
    {
      "mesh": 3,
      "name": "Flame3_0"
    }
  ],
  "samplers": [
    {
      "magFilter": 9729,
      "minFilter": 9987,
      "wrapS": 10497,
      "wrapT": 10497
    }
  ],
  "scene": 0,
  "scenes": [
    {
      "name": "OSG_Scene",
      "nodes": [
        0
      ]
    }
  ],
  "textures": [
    {
      "sampler": 0,
      "source": 0
    },
    {
      "sampler": 0,
      "source": 1
    },
    {
      "sampler": 0,
      "source": 2
    }
  ]
}

